<svg xmlns="http://www.w3.org/2000/svg" xmlns:xlink="http://www.w3.org/1999/xlink" x="0px" y="0px" width="64px" height="64px" viewBox="0 0 64 64"><g stroke-width="2" transform="translate(0.5, 0.5)"><path d="M48,57H62V47.708a4,4,0,0,0-2.514-3.714L48.1,39.438a2,2,0,0,1-1.241-1.609l-.468-3.744A11,11,0,0,0,53,24V14.725a6,6,0,0,0-6-6L45.447,5.618a1.159,1.159,0,0,0-1.387-.557L36.654,7.705A7.6,7.6,0,0,0,34.413,9" fill="none" stroke="#000000" stroke-linecap="square" stroke-miterlimit="10" stroke-width="2" data-color="color-2" stroke-linejoin="miter"></path>
  <path d="M39.486,45.994,28.1,41.438a2,2,0,0,1-1.241-1.609l-.462-3.693A17.529,17.529,0,0,0,37,36a27.345,27.345,0,0,1-4-14V21a11,11,0,0,0-22,0v1A27.345,27.345,0,0,1,7,36a17.529,17.529,0,0,0,10.608.136l-.462,3.693a2,2,0,0,1-1.241,1.609L4.514,45.994A4,4,0,0,0,2,49.708V57H42V49.708A4,4,0,0,0,39.486,45.994Z" fill="none" stroke="#000000" stroke-linecap="square" stroke-miterlimit="10" stroke-width="2" stroke-linejoin="miter"></path></g></svg>