<?xml version="1.0" encoding="UTF-8"?>
<svg width="106px" height="28px" viewBox="0 0 106 28" version="1.1" xmlns="http://www.w3.org/2000/svg" xmlns:xlink="http://www.w3.org/1999/xlink">
    <!-- Generator: Sketch 64 (93537) - https://sketch.com -->
    <title>Group 19</title>
    <desc>Created with Sketch.</desc>
    <defs>
        <polygon id="path-1" points="0 0.162352941 18.6924471 0.162352941 18.6924471 22.1739765 0 22.1739765"></polygon>
        <polygon id="path-3" points="0.0244941176 0.105929412 22.0362588 0.105929412 22.0362588 22.1176471 0.0244941176 22.1176471"></polygon>
    </defs>
    <g id="Page-1" stroke="none" stroke-width="1" fill="none" fill-rule="evenodd">
        <g id="Copy-Mode" transform="translate(-13.000000, -11.000000)">
            <g id="Group-19" transform="translate(13.000000, 11.000000)">
                <path d="M47.6804941,11.6154588 C47.6804941,9.86298824 47.3190824,8.49875294 46.5967294,7.52228235 C45.8739059,6.54628235 44.7826118,6.05828235 43.3223765,6.05828235 L40.0249647,6.05828235 L40.0249647,17.3568706 L43.1609647,17.3568706 C44.5593176,17.3568706 45.6628471,16.8766353 46.4696706,15.9156941 C47.2767294,14.9552235 47.6804941,13.5218118 47.6804941,11.6154588 M50.3322588,11.5921647 C50.3322588,13.1759294 50.0555529,14.5632235 49.5019059,15.7545176 C48.9487294,16.9458118 48.1336706,17.8721647 47.0579059,18.5328706 C45.9814353,19.1940471 44.6903765,19.5244 43.1840235,19.5244 L37.4421412,19.5244 L37.4421412,3.84463529 L43.2301412,3.84463529 C45.5666118,3.84463529 47.3343765,4.55169412 48.5336706,5.96581176 C49.7327294,7.3804 50.3322588,9.25592941 50.3322588,11.5921647" id="Fill-1" fill="#FFFFFF"></path>
                <path d="M60.6391294,13.9442824 C60.6391294,12.8529882 60.3586588,11.9652235 59.7974824,11.2809882 C59.2360706,10.5969882 58.4868941,10.2548706 57.5492471,10.2548706 C56.6268941,10.2548706 55.8774824,10.6007529 55.3010118,11.2925176 C54.7245412,11.9842824 54.4285412,12.8607529 54.4132471,13.9212235 C54.4132471,15.0129882 54.6934824,15.8967529 55.2548941,16.5729882 C55.8158353,17.2496941 56.5654824,17.5875765 57.5031294,17.5875765 C58.4405412,17.5875765 59.1979529,17.2416941 59.7744235,16.5499294 C60.3508941,15.8581647 60.6391294,14.9896941 60.6391294,13.9442824 M57.5031294,19.8242824 C56.3346588,19.8242824 55.3203059,19.5781647 54.4593647,19.0864 C53.5981882,18.5946353 52.9334824,17.9068706 52.4647765,17.0226353 C51.9958353,16.1388706 51.7617176,15.1052235 51.7617176,13.9212235 C51.7617176,12.7532235 51.9958353,11.7271059 52.4647765,10.8428706 C52.9334824,9.95910588 53.6061882,9.27134118 54.4824235,8.77910588 C55.3588941,8.28734118 56.3807765,8.04122353 57.5492471,8.04122353 C58.7172471,8.04122353 59.7358353,8.28334118 60.6047765,8.76757647 C61.4727765,9.25181176 62.1417176,9.93981176 62.6106588,10.8315765 C63.0793647,11.7231059 63.3139529,12.7532235 63.3139529,13.9212235 C63.3139529,15.0896941 63.0753647,16.1198118 62.5991294,17.0111059 C62.1226588,17.9028706 61.4461882,18.5946353 60.5699529,19.0864 C59.6937176,19.5781647 58.6713647,19.8242824 57.5031294,19.8242824" id="Fill-3" fill="#FFFFFF"></path>
                <path d="M69.4247529,17.7027765 C70.3621647,17.7027765 71.4539294,17.1879529 72.6991059,16.1580706 L72.6991059,8.34112941 L75.3045176,8.34112941 L75.3045176,19.5244235 L73.5522824,19.5244235 L73.0911059,18.1872471 C72.4454588,18.7098353 71.7381647,19.1248941 70.9694588,19.4324235 C70.2007529,19.7394824 69.4784,19.8936 68.8021647,19.8936 C66.3421647,19.8936 65.1127529,18.4408941 65.1127529,15.5352471 L65.1127529,8.34112941 L67.6951059,8.34112941 L67.6951059,15.3740706 C67.6951059,16.9267765 68.2718118,17.7027765 69.4247529,17.7027765" id="Fill-5" fill="#FFFFFF"></path>
                <path d="M85.8192706,13.9672471 C85.8192706,12.8606588 85.5578588,11.9651294 85.0352706,11.2808941 C84.5124471,10.5971294 83.7823294,10.2550118 82.8446824,10.2550118 C82.4446824,10.2550118 82.0722118,10.3164235 81.7263294,10.4394824 C81.3804471,10.5625412 81.0383294,10.7470118 80.7002118,10.9926588 L80.7002118,16.8957176 C81.3305647,17.3568941 82.0451529,17.5877176 82.8446824,17.5877176 C83.7670353,17.5877176 84.4933882,17.2496 85.0237412,16.5728941 C85.5540941,15.8966588 85.8192706,15.0281882 85.8192706,13.9672471 M88.4940941,13.9672471 C88.4940941,15.1201882 88.2637412,16.1387765 87.8025647,17.0225412 C87.3411529,17.9067765 86.6839765,18.5945412 85.8308,19.0865412 C84.9776235,19.5783059 83.9820941,19.8244235 82.8446824,19.8244235 C82.4298588,19.8244235 81.9644471,19.7319529 81.4498588,19.5477176 C80.9343294,19.3632471 80.4540941,19.1173647 80.0086824,18.8096 L79.4780941,19.5244235 L78.1178588,19.5244235 L78.1178588,3.49877647 L80.7002118,3.24512941 L80.7002118,8.64065882 C81.4531529,8.24112941 82.1837412,8.04112941 82.8910353,8.04112941 C84.0284471,8.04112941 85.0199765,8.28348235 85.8653882,8.76748235 C86.7105647,9.25171765 87.3604471,9.93995294 87.8140941,10.8314824 C88.2670353,11.7230118 88.4940941,12.7681882 88.4940941,13.9672471" id="Fill-7" fill="#FFFFFF"></path>
                <polygon id="Fill-9" fill="#FFFFFF" points="93.1981882 3.24505882 93.1981882 19.5245882 90.6153647 19.5245882 90.6153647 3.49870588"></polygon>
                <polygon id="Fill-11" fill="#FFFFFF" points="105.672682 8.34110588 101.360682 19.5244 99.7136235 24.8279294 97.4077412 24.8279294 99.0548 19.5244 94.9042118 8.75616471 97.4176235 7.92581176 100.253859 15.7888706 102.9748 8.34110588"></polygon>
                <g id="Group-15" transform="translate(0.000000, 0.072941)">
                    <mask id="mask-2" fill="white">
                        <use xlink:href="#path-1"></use>
                    </mask>
                    <g id="Clip-14"></g>
                    <polygon id="Fill-13" fill="#FFFFFF" mask="url(#mask-2)" points="18.6924471 6.17327059 17.4802118 6.54432941 16.2677412 6.91538824 15.1698588 3.32927059 3.16703529 7.00385882 6.84162353 19.0069176 10.1853882 17.9831529 10.5564471 19.1956235 10.9277412 20.4080941 5.15927059 22.1739765 -2.35294118e-05 5.32174118 16.8524471 0.162211765"></polygon>
                </g>
                <g id="Group-18" transform="translate(10.117647, 5.720000)">
                    <mask id="mask-4" fill="white">
                        <use xlink:href="#path-3"></use>
                    </mask>
                    <g id="Clip-17"></g>
                    <polygon id="Fill-16" fill="#FFFFFF" mask="url(#mask-4)" points="16.8767294 0.105929412 9.16872941 2.46569412 7.95649412 2.83698824 6.74425882 3.20828235 0.0244941176 5.26545882 2.00755294 11.7424 2.37861176 12.9546353 2.74967059 14.1671059 5.18378824 22.1176941 22.0362588 16.9584"></polygon>
                </g>
            </g>
        </g>
    </g>
</svg>