<?xml version="1.0" encoding="UTF-8"?>
<svg width="24px" height="24px" viewBox="0 0 24 24" version="1.1" xmlns="http://www.w3.org/2000/svg" xmlns:xlink="http://www.w3.org/1999/xlink">
    <!-- Generator: Sketch 64 (93537) - https://sketch.com -->
    <title>Group 7</title>
    <desc>Created with Sketch.</desc>
    <g id="Page-1" stroke="none" stroke-width="1" fill="none" fill-rule="evenodd">
        <g id="Section-Copied" transform="translate(-1219.000000, -13.000000)">
            <g id="Group-7" transform="translate(1220.000000, 14.000000)">
                <path d="M11,0 C17.075,0 22,4.925 22,11 C22,17.075 17.075,22 11,22 C4.925,22 0,17.075 0,11 C0,4.925 4.925,0 11,0 Z" id="Stroke-1" stroke="#FFFFFF" stroke-width="2" stroke-linecap="square"></path>
                <path d="M11,16 C11.553,16 12,16.447 12,17 C12,17.553 11.553,18 11,18 C10.448,18 10,17.553 10,17 C10,16.447 10.448,16 11,16" id="Fill-3" fill="#FFFFFF"></path>
                <path d="M8.853,5.5601 C10.833,4.6851 13.395,4.7891 14.27,6.2051 C15.145,7.6211 14.541,9.2681 13.041,10.5391 C11.541,11.8101 11,12.5001 11,13.5001" id="Stroke-5" stroke="#FFFFFF" stroke-width="2" stroke-linecap="square"></path>
            </g>
        </g>
    </g>
</svg>