<?xml version="1.0" encoding="UTF-8"?>
<svg width="16px" height="16px" viewBox="0 0 16 16" version="1.1" xmlns="http://www.w3.org/2000/svg" xmlns:xlink="http://www.w3.org/1999/xlink">
    <!-- Generator: Sketch 64 (93537) - https://sketch.com -->
    <title>Group 5</title>
    <desc>Created with Sketch.</desc>
    <g id="Page-1" stroke="none" stroke-width="1" fill="none" fill-rule="evenodd">
        <g id="Copy-Mode" transform="translate(-1272.000000, -425.000000)" fill="#FFFFFF">
            <g id="Group-5" transform="translate(1272.000000, 425.000000)">
                <path d="M8,12 C8.3,12 8.5,11.9 8.7,11.7 L14.4,6 L13,4.6 L9,8.6 L9,0 L7,0 L7,8.6 L3,4.6 L1.6,6 L7.3,11.7 C7.5,11.9 7.7,12 8,12" id="Fill-1"></path>
                <path d="M14,14 L2,14 L2,11 L0,11 L0,15 C0,15.6 0.4,16 1,16 L15,16 C15.6,16 16,15.6 16,15 L16,11 L14,11 L14,14 Z" id="Fill-3"></path>
            </g>
        </g>
    </g>
</svg>