<?xml version="1.0" encoding="UTF-8"?>
<svg width="22px" height="20px" viewBox="0 0 22 20" version="1.1" xmlns="http://www.w3.org/2000/svg" xmlns:xlink="http://www.w3.org/1999/xlink">
    <!-- Generator: Sketch 64 (93537) - https://sketch.com -->
    <title>Group 9</title>
    <desc>Created with Sketch.</desc>
    <g id="Page-1" stroke="none" stroke-width="1" fill="none" fill-rule="evenodd">
        <g id="Notifications" transform="translate(-785.000000, -666.000000)">
            <g id="Group-9" transform="translate(785.000000, 666.000000)">
                <polygon id="Stroke-1" stroke="#FFFFFF" stroke-linecap="square" points="0.8282 19.0735 10.8282 0.0735 20.8282 19.0735"></polygon>
                <line x1="10.8282" y1="8.0735" x2="10.8282" y2="12.0735" id="Stroke-3" stroke="#FFFFFF" stroke-linecap="square"></line>
                <g id="Group-8" transform="translate(9.000000, 13.573500)">
                    <path d="M1.8282,0.5 C2.3812,0.5 2.8282,0.947 2.8282,1.5 C2.8282,2.053 2.3812,2.5 1.8282,2.5 C1.2762,2.5 0.8282,2.053 0.8282,1.5 C0.8282,0.947 1.2762,0.5 1.8282,0.5" id="Fill-4" fill="#FFFFFF"></path>
                    <path d="M1.8282,0.5 C2.3812,0.5 2.8282,0.947 2.8282,1.5 C2.8282,2.053 2.3812,2.5 1.8282,2.5 C1.2762,2.5 0.8282,2.053 0.8282,1.5 C0.8282,0.947 1.2762,0.5 1.8282,0.5 Z" id="Stroke-6" stroke="#FFFFFF"></path>
                </g>
            </g>
        </g>
    </g>
</svg>