<svg xmlns="http://www.w3.org/2000/svg" xmlns:xlink="http://www.w3.org/1999/xlink" x="0px" y="0px" width="64px" height="64px" viewBox="0 0 64 64" stroke-width="2"><g stroke-width="2" transform="translate(0.5, 0.5)"><rect x="0.665" y="35.05" width="46.669" height="9.899" stroke-width="2" fill="none" stroke="#000000" stroke-linecap="square" stroke-miterlimit="10" transform="translate(-21.255 28.686) rotate(-45)" stroke-linejoin="miter"></rect><line data-cap="butt" x1="29" y1="28" x2="36" y2="35" fill="none" stroke="#000000" stroke-miterlimit="10" stroke-width="2" stroke-linecap="butt" stroke-linejoin="miter"></line><polygon data-color="color-2" points="50 39 51.926 44 50 49 55 47 60 49 58 44 60 39 55 41 50 39" fill="none" stroke="#000000" stroke-linecap="square" stroke-miterlimit="10" stroke-width="2" stroke-linejoin="miter"></polygon><polygon data-color="color-2" points="50 4 51.926 9 50 14 55 12 60 14 58 9 60 4 55 6 50 4" fill="none" stroke="#000000" stroke-linecap="square" stroke-miterlimit="10" stroke-width="2" stroke-linejoin="miter"></polygon><polygon data-color="color-2" points="15.074 4 17 9 15.074 14 20.074 12 25.074 14 23.074 9 25.074 4 20.074 6 15.074 4" fill="none" stroke="#000000" stroke-linecap="square" stroke-miterlimit="10" stroke-width="2" stroke-linejoin="miter"></polygon></g></svg>