<?xml version="1.0" encoding="UTF-8"?>
<svg width="354px" height="76px" viewBox="0 0 354 76" version="1.1" xmlns="http://www.w3.org/2000/svg" xmlns:xlink="http://www.w3.org/1999/xlink">
    <!-- Generator: Sketch 64 (93537) - https://sketch.com -->
    <title>Group 3</title>
    <desc>Created with Sketch.</desc>
    <g id="Page-1" stroke="none" stroke-width="1" fill="none" fill-rule="evenodd">
        <g id="Artboard" transform="translate(-110.000000, -98.000000)">
            <g id="Group-3" transform="translate(110.000000, 98.000000)">
                <g id="Group-17">
                    <path d="M130.799774,31.3106139 C130.799774,26.5046594 129.818447,22.7633968 127.857072,20.0855355 C125.89442,17.4089647 122.931274,16.0706793 118.966358,16.0706793 L110.013033,16.0706793 L110.013033,47.0557932 L118.528084,47.0557932 C122.324973,47.0557932 125.321341,45.7388016 127.512075,43.103528 C129.703448,40.4695449 130.799774,36.5385735 130.799774,31.3106139 M138,31.2467324 C138,35.5900299 137.248672,39.3945287 135.745377,42.6615195 C134.24336,45.9285103 132.030265,48.4689296 129.109286,50.2808415 C126.18639,52.094044 122.680832,53 118.590694,53 L103,53 L103,10 L118.715916,10 C125.060037,10 129.859975,11.9390297 133.116368,15.8170891 C136.372123,19.696439 138,24.8398685 138,31.2467324" id="Fill-1" fill="#241631"></path>
                    <path d="M166.590667,37.0313112 C166.590667,34.0676145 165.813756,31.6566556 164.259283,29.7984344 C162.704157,27.9408523 160.628918,27.0117417 158.031611,27.0117417 C155.476669,27.0117417 153.400778,27.9510763 151.803939,29.8297456 C150.2071,31.7084149 149.387172,34.0887016 149.344807,36.9686888 C149.344807,39.9336635 150.121066,42.3337593 151.676192,44.1702544 C153.230014,46.0080275 155.306556,46.925636 157.903864,46.925636 C160.500519,46.925636 162.59857,45.9863014 164.195409,44.1076321 C165.792248,42.2289628 166.590667,39.8704022 166.590667,37.0313112 M157.903864,53 C154.667169,53 151.857384,52.3316027 149.472554,50.9960861 C147.087073,49.6605695 145.24582,47.7927633 143.947492,45.3913894 C142.648512,42.9912936 142,40.1841527 142,36.9686888 C142,33.7966772 142.648512,31.0099844 143.947492,28.6086106 C145.24582,26.2085147 147.109233,24.3407085 149.536428,23.0039139 C151.964275,21.6683973 154.794916,21 158.031611,21 C161.267002,21 164.088519,21.6575342 166.495509,22.9726027 C168.899892,24.2876712 170.752877,26.1561165 172.051857,28.5779384 C173.350184,30.9991214 174,33.7966772 174,36.9686888 C174,40.1419785 173.339104,42.9395343 172.01992,45.3600783 C170.700084,47.7819002 168.826242,49.6605695 166.399047,50.9960861 C163.971852,52.3316027 161.139907,53 157.903864,53" id="Fill-3" fill="#241631"></path>
                    <path d="M189.846427,47.931484 C192.421794,47.931484 195.421217,46.5054381 198.84211,43.6526946 L198.84211,22 L206,22 L206,52.9773922 L201.186056,52.9773922 L199.919058,49.2734531 C198.145261,50.721007 196.202101,51.8707076 194.090223,52.7225549 C191.978345,53.5730987 189.993813,54 188.135981,54 C181.377583,54 178,49.9760479 178,41.927492 L178,22 L185.09454,22 L185.09454,41.4810379 C185.09454,45.781987 186.678933,47.931484 189.846427,47.931484" id="Fill-5" fill="#241631"></path>
                    <path d="M234.782059,37.1022821 C234.782059,34.0987483 234.076646,31.6680764 232.666455,29.8109052 C231.255629,27.9550112 229.285426,27.0264256 226.75521,27.0264256 C225.67582,27.0264256 224.670718,27.1931112 223.737364,27.527121 C222.804009,27.8611308 221.880814,28.3618262 220.968412,29.0285686 L220.968412,45.0508217 C222.669403,46.3025602 224.597701,46.9290682 226.75521,46.9290682 C229.244155,46.9290682 231.2042,46.0113394 232.635343,44.1746048 C234.066487,42.3391473 234.782059,39.9819193 234.782059,37.1022821 M242,37.1022821 C242,40.2316284 241.378399,42.9963101 240.133926,45.3950498 C238.888818,47.7950668 237.115445,49.6618177 234.81317,50.9972184 C232.510896,52.3319804 229.824486,53 226.75521,53 C225.635819,53 224.379918,52.7490137 222.991315,52.2489569 C221.600172,51.7482615 220.30427,51.0808805 219.102338,50.2455366 L217.670559,52.1857313 L214,52.1857313 L214,8.68845619 L220.968412,8 L220.968412,22.6447021 C223.000204,21.5602878 224.971677,21.017442 226.880292,21.017442 C229.949568,21.017442 232.625184,21.6752434 234.906506,22.9889302 C237.187192,24.3032557 238.940883,26.1712838 240.165038,28.5910987 C241.387288,31.0109137 242,33.8477619 242,37.1022821" id="Fill-7" fill="#241631"></path>
                    <polygon id="Fill-9" fill="#241631" points="255 8 255 53 248 53 248 8.70113314"></polygon>
                    <polygon id="Fill-11" fill="#241631" points="289 22.1302447 277.38758 52.5661664 272.951973 67 266.742123 67 271.17773 52.5661664 260 23.2598491 266.768737 21 274.406852 42.3997271 281.734475 22.1302447"></polygon>
                    <g id="Group">
                        <polygon id="Fill-13" fill="#241631" points="51.0290803 16.4533559 47.7197664 17.4690508 44.4098102 18.4853898 41.4126715 8.66850847 8.64519708 18.7275593 18.6771971 51.5833898 27.8054307 48.7810508 28.8183942 52.0992881 29.8313577 55.4181695 14.0844964 60.2518983 -7.75891922e-14 14.1224746 46.0053723 -9.15275388e-15"></polygon>
                        <polygon id="Fill-15" fill="#FF6A00" points="73.6927416 15.3034373 52.6504642 21.7627932 49.340508 22.7791322 46.0311942 23.7948271 27.6873693 29.4259119 33.1003328 47.1558102 34.1132964 50.4740475 35.1269022 53.7922847 41.7718657 75.5553356 87.777238 61.432861"></polygon>
                    </g>
                </g>
                <g id="Group-2" transform="translate(296.000000, 21.000000)">
                    <rect id="Rectangle" fill="#FF6A00" x="0" y="0" width="58" height="35" rx="17.4000007"></rect>
                    <path d="M15.5717232,23.8269962 L15.571606,19.7245041 L17.7346483,19.7243346 C18.5526776,19.7243346 19.2653121,19.5868277 19.8725516,19.3118139 L20.1263443,19.185532 C20.7859176,18.8263303 21.2898048,18.325855 21.6380058,17.6841062 C21.9862068,17.0423573 22.1603072,16.3004941 22.1603072,15.4585165 C22.1603072,14.6215591 21.9887755,13.8805487 21.6457119,13.2354852 C21.3026484,12.5904218 20.8062817,12.085409 20.1566119,11.7204469 C19.5069421,11.3554848 18.7202016,11.1730038 17.7963904,11.1730038 L17.7963904,11.1730038 L13,11.1730038 L13,23.8269962 L15.5717232,23.8269962 Z M15.5717232,13.3626797 L17.3068169,13.3626797 C17.8043442,13.3626797 18.2157264,13.4498091 18.5409637,13.624068 C18.8662009,13.7983268 19.1094402,14.042595 19.2706816,14.3568723 C19.431923,14.6711497 19.5125437,15.0383644 19.5125437,15.4585165 C19.5125437,15.8762229 19.431923,16.2444835 19.2706816,16.5632983 C19.1094402,16.8821132 18.8670056,17.1311119 18.5433776,17.3102944 C18.2197497,17.4894769 17.8107196,17.5790681 17.3162872,17.5790681 L17.3162872,17.5790681 L15.571606,17.5794264 L15.5717232,13.3626797 Z M26.4101084,23.8269962 L26.4097826,19.3442064 L28.2874597,19.3442064 L30.5933482,23.8269962 L33.431259,23.8269962 L30.8499929,18.911711 L30.9623156,18.8617291 C31.5394423,18.580598 31.9976797,18.1913042 32.337028,17.6938479 L32.475184,17.4740301 C32.8241897,16.8701902 32.9986925,16.1472815 32.9986925,15.3053039 C32.9986925,14.4682821 32.8271607,13.7400153 32.4840972,13.1205034 C32.1410337,12.5009914 31.6442801,12.0215302 30.9938366,11.6821196 C30.3433931,11.3427091 29.5570394,11.1730038 28.6347757,11.1730038 L28.6347757,11.1730038 L23.8383853,11.1730038 L23.8383853,23.8269962 L26.4101084,23.8269962 Z M26.4101084,13.3626797 L28.1452022,13.3626797 C28.641182,13.3626797 29.0517906,13.4370334 29.3770278,13.5857407 C29.702265,13.734448 29.9458912,13.9531807 30.1079063,14.2419387 C30.2699215,14.5306967 30.350929,14.8851518 30.350929,15.3053039 C30.350929,15.7230102 30.2703083,16.0714958 30.1090669,16.3507605 C29.9478255,16.6300252 29.7049885,16.8394898 29.3805559,16.9791543 C29.0561233,17.1188188 28.6474955,17.1886511 28.1546724,17.1886511 L28.1546724,17.1886511 L26.4097826,17.1891863 L26.4101084,13.3626797 Z M40.3003172,24 C41.376271,24 42.3444467,23.7456432 43.2048445,23.2369297 C44.0652423,22.7282161 44.746201,21.9896514 45.2477206,21.0212356 C45.7492402,20.0528198 46,18.8790746 46,17.5 C46,16.1209254 45.7492402,14.9471802 45.2477206,13.9787644 C44.746201,13.0103486 44.0652423,12.2717839 43.2048445,11.7630703 C42.3444467,11.2543568 41.376271,11 40.3003172,11 C39.2196593,11 38.2497195,11.2543568 37.3904978,11.7630703 C36.531276,12.2717839 35.8514933,13.0103486 35.3511498,13.9787644 C34.8508062,14.9471802 34.6006345,16.1209254 34.6006345,17.5 C34.6006345,18.8741187 34.8508062,20.045386 35.3511498,21.0138018 C35.8514933,21.9822177 36.531276,22.7220213 37.3904978,23.2332128 C38.2497195,23.7444043 39.2196593,24 40.3003172,24 Z M40.3003172,21.6323966 C39.6775726,21.6323966 39.1346594,21.4740029 38.6715778,21.1572154 C38.2084962,20.840428 37.8492002,20.3749493 37.5936898,19.7607793 C37.3381794,19.1466094 37.2104242,18.3930163 37.2104242,17.5 C37.2104242,16.6069837 37.3381794,15.8533906 37.5936898,15.2392207 C37.8492002,14.6250507 38.2084962,14.159572 38.6715778,13.8427846 C39.1346594,13.5259971 39.6775726,13.3676034 40.3003172,13.3676034 C40.9230619,13.3676034 41.465975,13.5259971 41.9290567,13.8427846 C42.3921383,14.159572 42.7514498,14.6250507 43.0069911,15.2392207 C43.2625324,15.8533906 43.3903031,16.6069837 43.3903031,17.5 C43.3903031,18.3930163 43.2625324,19.1466094 43.0069911,19.7607793 C42.7514498,20.3749493 42.3921383,20.840428 41.9290567,21.1572154 C41.465975,21.4740029 40.9230619,21.6323966 40.3003172,21.6323966 Z" id="PRO" fill="#FFFFFF" fill-rule="nonzero"></path>
                </g>
            </g>
        </g>
    </g>
</svg>