<svg xmlns="http://www.w3.org/2000/svg" xmlns:xlink="http://www.w3.org/1999/xlink" width="450px" height="118px" viewBox="0 0 450 118"><title>Group 17</title><desc>Created with Sketch.</desc><g id="Page-1" stroke="none" stroke-width="1" fill="none" fill-rule="evenodd"><g id="Dialog-Copy" transform="translate(-424.000000, -340.000000)"><g id="Group-17" transform="translate(424.000000, 340.000000)"><path d="M202.6418,48.3654 C202.6418,40.9174 201.1058,35.1194 198.0358,30.9694 C194.9638,26.8214 190.3258,24.7474 184.1198,24.7474 L170.1058,24.7474 L170.1058,72.7664 L183.4338,72.7664 C189.3768,72.7664 194.0668,70.7254 197.4958,66.6414 C200.9258,62.5594 202.6418,56.4674 202.6418,48.3654 M213.9118,48.2664 C213.9118,54.9974 212.7358,60.8934 210.3828,65.9564 C208.0318,71.0194 204.5678,74.9564 199.9958,77.7644 C195.4208,80.5744 189.9338,81.9784 183.5318,81.9784 L159.1288,81.9784 L159.1288,15.3394 L183.7278,15.3394 C193.6578,15.3394 201.1708,18.3444 206.2678,24.3544 C211.3638,30.3664 213.9118,38.3374 213.9118,48.2664" id="Fill-1" fill="#241631"></path><path d="M257.716,58.2629 C257.716,53.6249 256.524,49.8519 254.139,46.9439 C251.753,44.0369 248.569,42.5829 244.584,42.5829 C240.664,42.5829 237.479,44.0529 235.029,46.9929 C232.579,49.9329 231.321,53.6579 231.256,58.1649 C231.256,62.8049 232.447,66.5609 234.833,69.4349 C237.217,72.3109 240.403,73.7469 244.388,73.7469 C248.372,73.7469 251.591,72.2769 254.041,69.3369 C256.491,66.3969 257.716,62.7059 257.716,58.2629 M244.388,83.2529 C239.422,83.2529 235.111,82.2069 231.452,80.1169 C227.792,78.0269 224.967,75.1039 222.975,71.3459 C220.982,67.5899 219.987,63.1969 219.987,58.1649 C219.987,53.2009 220.982,48.8399 222.975,45.0819 C224.967,41.3259 227.826,38.4029 231.55,36.3109 C235.275,34.2209 239.618,33.1749 244.584,33.1749 C249.548,33.1749 253.877,34.2039 257.57,36.2619 C261.259,38.3199 264.102,41.2439 266.095,45.0339 C268.087,48.8229 269.084,53.2009 269.084,58.1649 C269.084,63.1309 268.07,67.5089 266.046,71.2969 C264.021,75.0869 261.146,78.0269 257.422,80.1169 C253.698,82.2069 249.353,83.2529 244.388,83.2529" id="Fill-3" fill="#241631"></path><path d="M295.0548,74.2365 C299.0388,74.2365 303.6788,72.0485 308.9708,67.6715 L308.9708,34.4495 L320.0438,34.4495 L320.0438,81.9785 L312.5968,81.9785 L310.6368,76.2955 C307.8928,78.5165 304.8868,80.2805 301.6198,81.5875 C298.3528,82.8925 295.2828,83.5475 292.4088,83.5475 C281.9538,83.5475 276.7288,77.3735 276.7288,65.0245 L276.7288,34.4495 L287.7038,34.4495 L287.7038,64.3395 C287.7038,70.9385 290.1548,74.2365 295.0548,74.2365" id="Fill-5" fill="#241631"></path><path d="M364.7316,58.3606 C364.7316,53.6576 363.6206,49.8516 361.3996,46.9436 C359.1776,44.0376 356.0746,42.5836 352.0896,42.5836 C350.3896,42.5836 348.8066,42.8446 347.3366,43.3676 C345.8666,43.8906 344.4126,44.6746 342.9756,45.7186 L342.9756,70.8066 C345.6546,72.7666 348.6916,73.7476 352.0896,73.7476 C356.0096,73.7476 359.0966,72.3106 361.3506,69.4346 C363.6046,66.5606 364.7316,62.8696 364.7316,58.3606 M376.0996,58.3606 C376.0996,63.2606 375.1206,67.5896 373.1606,71.3456 C371.1996,75.1036 368.4066,78.0266 364.7806,80.1176 C361.1546,82.2076 356.9236,83.2536 352.0896,83.2536 C350.3266,83.2536 348.3486,82.8606 346.1616,82.0776 C343.9706,81.2936 341.9296,80.2486 340.0366,78.9406 L337.7816,81.9786 L332.0006,81.9786 L332.0006,13.8696 L342.9756,12.7916 L342.9756,35.7226 C346.1756,34.0246 349.2806,33.1746 352.2866,33.1746 C357.1206,33.1746 361.3346,34.2046 364.9276,36.2616 C368.5196,38.3196 371.2816,41.2446 373.2096,45.0336 C375.1346,48.8226 376.0996,53.2646 376.0996,58.3606" id="Fill-7" fill="#241631"></path><polygon id="Fill-9" fill="#241631" points="396.0919 12.7912 396.0919 81.9792 385.1149 81.9792 385.1149 13.8692"></polygon><polygon id="Fill-11" fill="#241631" points="449.1086 34.4494 430.7826 81.9784 423.7826 104.5184 413.9826 104.5184 420.9826 81.9784 403.3426 36.2134 414.0246 32.6844 426.0786 66.1024 437.6426 34.4494"></polygon><polygon id="Fill-13" fill="#241631" points="79.4433 25.546 74.2913 27.123 69.1383 28.701 64.4723 13.459 13.4593 29.077 29.0773 80.09 43.2883 75.739 44.8653 80.891 46.4423 86.044 21.9273 93.549 0.0003 21.927 71.6223 0"></polygon><polygon id="Fill-15" fill="#FF6A00" points="114.7265 23.7606 81.9675 33.7896 76.8145 35.3676 71.6625 36.9446 43.1045 45.6876 51.5315 73.2156 53.1085 78.3676 54.6865 83.5196 65.0315 117.3096 136.6535 95.3826"></polygon></g></g></g></svg>