<?xml version="1.0" encoding="UTF-8"?>
<svg width="15px" height="14px" viewBox="0 0 15 14" version="1.1" xmlns="http://www.w3.org/2000/svg" xmlns:xlink="http://www.w3.org/1999/xlink">
    <!-- Generator: Sketch 64 (93537) - https://sketch.com -->
    <title>warning-sign</title>
    <desc>Created with Sketch.</desc>
    <g id="Page-1" stroke="none" stroke-width="1" fill="none" fill-rule="evenodd">
        <g id="Copy-Buttons" transform="translate(-192.000000, -340.000000)" fill="#FFFFFF" fill-rule="nonzero">
            <g id="warning-sign" transform="translate(192.000000, 340.000000)">
                <path d="M14.7778194,11.2517118 L9.20801499,1.00002237 C8.87255357,0.384686131 8.2155186,0 7.5,0 C6.7844814,0 6.12744643,0.384686131 5.79198501,1.00002237 L0.22218065,11.2517118 C-0.0929030708,11.8335529 -0.0716443025,12.533627 0.278195108,13.0963279 C0.628034518,13.6590289 1.25524379,14.0019865 1.93082083,14 L13.0691792,14 C13.7447562,14.0019865 14.3719655,13.6590289 14.7218049,13.0963279 C15.0716443,12.533627 15.0929031,11.8335529 14.7778194,11.2517118 Z M7.5,12.173889 C6.98207689,12.173889 6.56221725,11.765104 6.56221725,11.2608422 C6.56221725,10.7565804 6.98207689,10.3477954 7.5,10.3477954 C8.01792311,10.3477954 8.43778275,10.7565804 8.43778275,11.2608422 C8.43778275,11.765104 8.01792311,12.173889 7.5,12.173889 Z M8.1251885,9.13039971 L6.8748115,9.13039971 L6.56221725,4.26081682 L8.43778275,4.26081682 L8.1251885,9.13039971 Z" id="Shape"></path>
            </g>
        </g>
    </g>
</svg>