<?xml version="1.0" encoding="UTF-8"?>
<svg width="76px" height="20px" viewBox="0 0 76 20" version="1.1" xmlns="http://www.w3.org/2000/svg" xmlns:xlink="http://www.w3.org/1999/xlink">
    <!-- Generator: Sketch 64 (93537) - https://sketch.com -->
    <title>Group 19 Copy</title>
    <desc>Created with Sketch.</desc>
    <g id="Page-1" stroke="none" stroke-width="1" fill="none" fill-rule="evenodd">
        <g id="Notifications" transform="translate(-9.000000, -52.000000)">
            <g id="Group-19-Copy" transform="translate(9.000000, 52.000000)">
                <path d="M34.0574958,8.2967563 C34.0574958,7.0449916 33.7993445,6.07053782 33.2833782,5.37305882 C32.7670756,4.67591597 31.9875798,4.32734454 30.9445546,4.32734454 L28.5892605,4.32734454 L28.5892605,12.3977647 L30.8292605,12.3977647 C31.828084,12.3977647 32.6163193,12.0547395 33.1926218,11.3683529 C33.7690924,10.6823025 34.0574958,9.65843697 34.0574958,8.2967563 M35.9516134,8.28011765 C35.9516134,9.41137815 35.7539664,10.4023025 35.3585042,11.2532269 C34.9633782,12.1041513 34.3811933,12.7658319 33.6127899,13.2377647 C32.8438824,13.7100336 31.9216975,13.946 30.8457311,13.946 L26.7443866,13.946 L26.7443866,2.74616807 L30.8786723,2.74616807 C32.5475798,2.74616807 33.8102689,3.25121008 34.6669076,4.26129412 C35.5233782,5.27171429 35.9516134,6.61137815 35.9516134,8.28011765" id="Fill-1" fill="#FFFFFF"></path>
                <path d="M43.3136639,9.96020168 C43.3136639,9.18070588 43.1133277,8.54658824 42.7124874,8.05784874 C42.311479,7.56927731 41.7763529,7.32490756 41.106605,7.32490756 C40.4477815,7.32490756 39.9124874,7.57196639 39.5007227,8.06608403 C39.088958,8.56020168 38.8775294,9.1862521 38.866605,9.94373109 C38.866605,10.723563 39.0667731,11.3548235 39.4677815,11.8378487 C39.8684538,12.3212101 40.403916,12.5625546 41.0736639,12.5625546 C41.7432437,12.5625546 42.2842521,12.3154958 42.6960168,11.8213782 C43.1077815,11.3272605 43.3136639,10.7069244 43.3136639,9.96020168 M41.0736639,14.1602017 C40.239042,14.1602017 39.5145042,13.9844034 38.8995462,13.6331429 C38.2844202,13.2818824 37.8096303,12.7906218 37.4748403,12.1590252 C37.1398824,11.5277647 36.9726555,10.7894454 36.9726555,9.94373109 C36.9726555,9.10944538 37.1398824,8.3765042 37.4748403,7.74490756 C37.8096303,7.11364706 38.2901345,6.62238655 38.9160168,6.27078992 C39.5420672,5.91952941 40.2719832,5.74373109 41.106605,5.74373109 C41.9408908,5.74373109 42.6684538,5.91667227 43.2891261,6.26255462 C43.9091261,6.60843697 44.3869412,7.09986555 44.7218992,7.73684034 C45.0566891,8.37364706 45.2242521,9.10944538 45.2242521,9.94373109 C45.2242521,10.7783529 45.0538319,11.5141513 44.7136639,12.1507899 C44.3733277,12.7877647 43.8901345,13.2818824 43.2642521,13.6331429 C42.6383697,13.9844034 41.9081176,14.1602017 41.0736639,14.1602017" id="Fill-3" fill="#FFFFFF"></path>
                <path d="M49.5891092,12.6448403 C50.2586891,12.6448403 51.038521,12.2771092 51.9279328,11.541479 L51.9279328,5.95794958 L53.7889412,5.95794958 L53.7889412,13.9460168 L52.5373445,13.9460168 L52.2079328,12.9908908 C51.7467563,13.3641681 51.2415462,13.6606387 50.6924706,13.8803025 C50.143395,14.0996303 49.6274286,14.2097143 49.1444034,14.2097143 C47.3872605,14.2097143 46.5091092,13.1720672 46.5091092,11.096605 L46.5091092,5.95794958 L48.3536471,5.95794958 L48.3536471,10.981479 C48.3536471,12.0905546 48.7655798,12.6448403 49.5891092,12.6448403" id="Fill-5" fill="#FFFFFF"></path>
                <path d="M61.299479,9.97660504 C61.299479,9.18618487 61.1127563,8.54652101 60.739479,8.05778151 C60.3660336,7.56937815 59.844521,7.3250084 59.1747731,7.3250084 C58.8890588,7.3250084 58.6230084,7.36887395 58.3759496,7.45677311 C58.1288908,7.54467227 57.884521,7.67643697 57.6430084,7.85189916 L57.6430084,12.0683697 C58.0932605,12.3977815 58.6036807,12.5626555 59.1747731,12.5626555 C59.8335966,12.5626555 60.3524202,12.3211429 60.7312437,11.8377815 C61.1100672,11.3547563 61.299479,10.7344202 61.299479,9.97660504 M63.2100672,9.97660504 C63.2100672,10.8001345 63.0455294,11.5276975 62.7161176,12.158958 C62.3865378,12.7905546 61.9171261,13.2818151 61.3077143,13.6332437 C60.6983025,13.9845042 59.9872101,14.1603025 59.1747731,14.1603025 C58.8784706,14.1603025 58.5460336,14.0942521 58.1784706,13.9626555 C57.8102353,13.8308908 57.4672101,13.6552605 57.1490588,13.4354286 L56.7700672,13.9460168 L55.7984706,13.9460168 L55.7984706,2.49912605 L57.6430084,2.31794958 L57.6430084,6.17189916 C58.1808235,5.88652101 58.7026723,5.74366387 59.2078824,5.74366387 C60.0203193,5.74366387 60.7285546,5.91677311 61.3324202,6.26248739 C61.9361176,6.60836975 62.4003193,7.09996639 62.7243529,7.73677311 C63.0478824,8.37357983 63.2100672,9.12013445 63.2100672,9.97660504" id="Fill-7" fill="#FFFFFF"></path>
                <polygon id="Fill-9" fill="#FFFFFF" points="66.5701345 2.31789916 66.5701345 13.9461345 64.7252605 13.9461345 64.7252605 2.49907563"></polygon>
                <polygon id="Fill-11" fill="#FFFFFF" points="75.4804874 5.95793277 72.4004874 13.946 71.2240168 17.7342353 69.576958 17.7342353 70.7534286 13.946 67.7887227 6.25440336 69.5840168 5.66129412 71.6098992 11.2777647 73.5534286 5.95793277"></polygon>
                <g id="Group-15" transform="translate(0.000000, 0.052101)" fill="#FFFFFF">
                    <polygon id="Fill-13" points="13.3517479 4.40947899 12.4858655 4.67452101 11.6198151 4.93956303 10.8356134 2.37805042 2.26216807 5.0027563 4.88687395 13.5763697 7.27527731 12.8451092 7.54031933 13.7111597 7.80552941 14.5772101 3.68519328 15.8385546 -1.68067227e-05 3.8012437 12.0374622 0.115865546"></polygon>
                </g>
                <g id="Group-18" transform="translate(7.226891, 4.085714)" fill="#FF6A00">
                    <polygon id="Fill-16" points="12.0548067 0.0756638655 6.54909244 1.76121008 5.68321008 2.02642017 4.81732773 2.29163025 0.0174957983 3.76104202 1.43396639 8.38742857 1.6990084 9.25331092 1.96405042 10.1193613 3.70270588 15.7983529 15.7401849 12.1131429"></polygon>
                </g>
            </g>
        </g>
    </g>
</svg>