<?xml version="1.0" encoding="UTF-8"?>
<svg width="20px" height="17px" viewBox="0 0 20 17" version="1.1" xmlns="http://www.w3.org/2000/svg" xmlns:xlink="http://www.w3.org/1999/xlink">
    <!-- Generator: Sketch 64 (93537) - https://sketch.com -->
    <title>Combined Shape</title>
    <desc>Created with Sketch.</desc>
    <g id="Page-1" stroke="none" stroke-width="1" fill="none" fill-rule="evenodd">
        <g id="Notifications" transform="translate(-948.000000, -225.000000)" fill="#9CA2A6">
            <path d="M964.374571,228.5713 L967.507143,238.803157 L957.275286,241.935586 L955.797429,237.108443 L955.749286,236.950729 L955.572143,236.3723 L955.346857,235.6363 L954.142857,231.703871 L958.222571,230.454729 L959.694714,230.004157 L959.757857,229.984729 L964.374571,228.5713 Z M958.231714,224.999886 L959.297857,228.482171 L959.234714,228.5016 L958.498571,228.726886 L957.762571,228.952171 L953.682857,230.201314 L952.180286,230.661314 L952.640286,232.163886 L953.844143,236.096314 L954.069429,236.832314 L954.246571,237.410743 L951.132429,238.364171 L949.654571,233.537029 L949.429143,232.800886 L949.204,232.064886 L948,228.132457 L952.079714,226.883314 L952.815714,226.658029 L953.551857,226.432743 L958.231714,224.999886 Z" id="Combined-Shape"></path>
        </g>
    </g>
</svg>